<?xml version="1.0" standalone="no"?>
<!DOCTYPE svg PUBLIC "-//W3C//DTD SVG 20010904//EN"
 "http://www.w3.org/TR/2001/REC-SVG-20010904/DTD/svg10.dtd">
<svg version="1.0" xmlns="http://www.w3.org/2000/svg"
 width="192.000000pt" height="192.000000pt" viewBox="0 0 192.000000 192.000000"
 preserveAspectRatio="xMidYMid meet">
<metadata>
Created by potrace 1.14, written by Peter Selinger 2001-2017
</metadata>
<g transform="translate(0.000000,192.000000) scale(0.100000,-0.100000)"
fill="#000000" stroke="none">
<path d="M774 1771 c-122 -29 -269 -99 -332 -158 -14 -13 -29 -20 -34 -17 -4
3 -7 2 -6 -3 2 -5 -20 -32 -48 -60 -28 -28 -68 -78 -89 -110 -21 -32 -43 -61
-48 -64 -5 -3 -8 -8 -6 -10 5 -9 -13 -49 -23 -49 -6 0 -9 -3 -6 -6 3 -3 -4
-32 -17 -64 -13 -32 -21 -61 -18 -64 3 -2 1 -11 -3 -18 -5 -7 -9 -20 -11 -28
-13 -86 -16 -111 -17 -150 -1 -25 1 -54 5 -66 4 -11 3 -28 -2 -37 -7 -11 -6
-17 0 -17 6 0 11 -10 10 -22 0 -40 8 -82 24 -119 11 -28 12 -40 4 -49 -9 -9
-8 -11 3 -8 10 2 15 -4 14 -19 0 -13 2 -21 5 -18 7 8 40 -68 34 -79 -4 -5 -2
-6 4 -3 5 3 20 -12 33 -35 28 -49 41 -66 98 -126 23 -25 42 -48 42 -53 0 -4 9
-11 20 -14 11 -4 18 -11 15 -16 -3 -5 1 -6 9 -3 9 3 16 2 16 -2 0 -5 21 -22
48 -39 26 -16 50 -34 54 -39 3 -5 14 -11 23 -12 29 -4 75 -26 75 -35 0 -5 3
-8 8 -8 24 4 42 -2 36 -13 -4 -7 -3 -8 5 -4 6 4 19 2 28 -6 14 -11 16 -11 8 1
-6 11 -4 13 11 7 10 -5 25 -9 32 -9 6 0 12 -3 12 -7 0 -6 28 -9 98 -11 39 0
42 -2 30 -17 -9 -12 -7 -12 10 2 16 14 22 15 22 6 0 -11 3 -11 12 -2 15 15 31
16 22 0 -5 -7 -3 -8 5 -4 7 5 24 10 39 12 15 2 38 6 52 8 14 2 31 -2 39 -8 11
-8 13 -8 8 1 -7 12 4 17 54 27 8 2 22 6 32 11 9 4 24 4 33 1 8 -3 13 -2 10 3
-3 4 25 21 62 37 37 15 75 35 85 44 10 8 20 13 22 10 3 -3 12 5 21 18 9 13 22
21 30 18 8 -3 14 1 14 10 0 8 7 17 15 20 19 8 84 72 78 78 -3 2 5 7 16 11 12
3 19 11 16 16 -4 5 -1 9 5 9 6 0 9 4 6 8 -3 5 4 15 15 22 10 8 19 20 19 27 0
7 8 13 18 13 12 0 14 2 4 8 -9 7 -8 13 8 27 11 10 17 22 14 26 -3 5 -1 9 5 9
5 0 12 13 16 30 3 16 15 47 25 69 18 35 34 94 46 161 3 14 5 51 6 82 1 39 5
55 12 51 6 -4 5 0 -2 9 -7 9 -11 32 -9 52 2 20 1 36 -2 36 -4 0 -8 15 -9 34
-1 19 -9 56 -17 82 -8 26 -12 51 -9 56 3 4 1 8 -4 8 -6 0 -16 20 -23 45 -7 25
-16 45 -20 45 -4 0 -12 12 -19 28 -19 46 -34 72 -42 72 -5 0 -8 6 -8 13 -1 6
-19 30 -40 52 -22 22 -38 46 -35 53 3 7 1 10 -5 7 -5 -3 -23 8 -40 25 -17 17
-49 42 -71 57 -21 14 -39 30 -39 34 0 5 -7 9 -16 9 -9 0 -28 8 -42 18 -23 16
-48 29 -72 37 -3 1 -12 5 -20 8 -136 57 -345 73 -496 38z"/>
</g>
</svg>
